<?xml version="1.0" standalone="no"?>
<!DOCTYPE svg PUBLIC "-//W3C//DTD SVG 20010904//EN"
 "http://www.w3.org/TR/2001/REC-SVG-20010904/DTD/svg10.dtd">
<svg version="1.0" xmlns="http://www.w3.org/2000/svg"
 width="3500.000000pt" height="3078.000000pt" viewBox="0 0 3500.000000 3078.000000"
 preserveAspectRatio="xMidYMid meet">

<g transform="translate(0.000000,3078.000000) scale(0.100000,-0.100000)"
fill="#ffffff" stroke="none">
<path d="M16835 30769 c-626 -22 -1249 -71 -1859 -149 -6104 -772 -11325
-4361 -13676 -9400 -671 -1438 -1093 -2988 -1240 -4550 -44 -478 -54 -702 -54
-1280 0 -579 10 -806 55 -1280 356 -3778 2272 -7284 5409 -9896 1796 -1496
3923 -2637 6250 -3354 2624 -808 5438 -1051 8226 -710 3581 438 6948 1865
9582 4063 422 351 718 622 1123 1027 1382 1381 2457 2946 3206 4670 581 1335
946 2752 1082 4200 45 474 55 701 55 1280 0 579 -10 806 -55 1280 -177 1875
-737 3693 -1654 5370 -1341 2452 -3376 4533 -5935 6072 -2075 1247 -4479 2097
-6950 2457 -1165 170 -2417 240 -3565 200z m1480 -1209 c3319 -147 6460 -1151
9084 -2903 2532 -1690 4439 -3978 5486 -6582 250 -621 446 -1243 594 -1885
421 -1825 423 -3757 5 -5580 -639 -2787 -2229 -5341 -4574 -7346 -1555 -1329
-3412 -2380 -5435 -3076 -1498 -515 -3091 -834 -4710 -943 -796 -53 -1744 -53
-2530 0 -2941 201 -5705 1068 -8120 2548 -1603 982 -3022 2244 -4138 3681
-561 723 -1040 1486 -1450 2313 -1349 2721 -1679 5775 -937 8688 530 2082
1621 4069 3149 5735 868 947 1828 1764 2921 2485 2024 1337 4324 2227 6805
2635 862 142 1725 221 2650 244 211 5 962 -4 1200 -14z"/>
<path d="M16795 27539 c-2921 -125 -5748 -909 -7505 -2082 -976 -651 -1612
-1415 -1861 -2234 -76 -250 -108 -459 -116 -744 -8 -308 16 -538 87 -822 363
-1448 1580 -2766 3780 -4089 1188 -715 2230 -1224 4135 -2021 979 -409 1194
-499 1465 -610 168 -68 447 -182 620 -252 1497 -605 2231 -922 3051 -1318
l294 -142 117 -350 c64 -193 263 -795 443 -1340 180 -544 418 -1267 530 -1605
112 -338 384 -1162 605 -1830 220 -668 404 -1218 409 -1223 12 -12 1115 568
1119 587 4 16 -20 90 -391 1236 -124 382 -303 934 -397 1225 -94 292 -248 766
-342 1055 -205 632 -437 1350 -668 2065 -94 292 -200 618 -235 725 -35 107
-109 337 -165 510 -56 173 -130 403 -165 510 -35 107 -141 434 -236 725 -421
1305 -476 1472 -956 2955 -123 382 -301 931 -394 1220 -93 289 -174 536 -179
550 -5 14 -56 171 -114 350 -57 179 -181 561 -274 850 -94 289 -270 833 -392
1210 -122 377 -273 843 -335 1035 -63 193 -165 510 -228 705 -93 288 -403
1244 -608 1876 -21 66 -39 124 -39 129 0 4 190 5 423 2 1731 -23 3325 -332
4702 -910 897 -377 1879 -977 2788 -1704 92 -74 174 -133 181 -130 13 5 748
927 754 946 6 19 -423 362 -777 620 -798 581 -1559 997 -2466 1346 -1456 560
-3225 896 -5130 975 -273 11 -1260 11 -1530 -1z m420 -1159 c5 -8 -66 -231
-415 -1295 -43 -132 -144 -442 -225 -690 -81 -247 -218 -668 -305 -935 -87
-267 -221 -678 -299 -915 -77 -236 -251 -770 -386 -1185 -136 -415 -309 -946
-385 -1180 -76 -234 -250 -765 -385 -1180 -361 -1106 -532 -1632 -540 -1657
-3 -13 -9 -23 -13 -23 -12 0 -780 383 -1032 515 -1631 852 -2692 1590 -3582
2491 -552 559 -831 959 -977 1400 -217 655 -68 1389 397 1959 207 253 432 458
754 686 848 601 2371 1200 3978 1564 1026 232 1996 364 3260 444 74 4 138 9
142 10 4 0 9 -3 13 -9z m413 -3710 c61 -184 269 -814 462 -1400 193 -586 359
-1090 370 -1120 10 -30 102 -307 203 -615 341 -1032 527 -1596 702 -2125 714
-2160 866 -2622 862 -2627 -3 -2 -117 46 -253 108 -894 401 -1329 584 -2919
1224 -815 328 -1580 646 -1597 663 -5 5 1 35 11 68 23 71 220 670 399 1214 72
217 229 697 351 1065 640 1950 1272 3872 1277 3884 3 9 8 11 13 5 5 -5 58
-160 119 -344z"/>
<path d="M13374 14568 c-8 -13 -112 -326 -324 -978 -78 -239 -215 -660 -305
-935 -90 -275 -227 -696 -305 -935 -78 -239 -177 -543 -220 -675 -117 -356
-389 -1190 -550 -1685 -78 -239 -177 -543 -220 -675 -330 -1006 -391 -1198
-388 -1211 2 -8 116 -72 253 -143 709 -362 869 -441 877 -433 5 5 155 454 334
998 178 544 376 1144 439 1334 62 190 215 656 340 1035 125 380 282 859 350
1065 68 206 282 857 476 1445 193 589 366 1115 384 1170 22 64 30 104 24 111
-5 6 -78 43 -162 82 -624 288 -966 442 -980 442 -9 0 -19 -5 -23 -12z"/>
<path d="M24034 12786 c-3 -8 35 -153 84 -323 50 -169 176 -605 282 -968 121
-416 197 -664 207 -670 9 -5 82 -60 162 -122 743 -567 1198 -1077 1477 -1658
236 -492 285 -949 143 -1351 -173 -491 -642 -1060 -1252 -1520 -854 -644
-2040 -1153 -3572 -1531 -925 -228 -1914 -374 -2975 -440 -407 -25 -1494 -25
-1900 0 -1843 114 -3381 451 -4760 1042 -790 338 -1804 921 -2624 1509 -82 58
-153 105 -157 104 -4 -2 -67 -71 -141 -154 -73 -82 -253 -286 -400 -452 -148
-166 -268 -308 -268 -314 0 -7 26 -33 58 -58 1098 -851 2330 -1576 3412 -2008
1236 -494 2642 -776 4425 -887 1171 -73 2486 -23 3705 141 1910 256 3475 702
4789 1364 1700 856 2641 1836 2880 3003 53 254 65 388 66 692 0 293 -4 346
-46 597 -189 1134 -986 2180 -2499 3280 -256 185 -930 644 -1078 732 -7 4 -14
1 -18 -8z"/>
</g>
</svg>
